<?xml version="1.0" encoding="UTF-8"?>
<svg viewBox="0 0 403 257" version="1.1" xmlns="http://www.w3.org/2000/svg" xmlns:xlink="http://www.w3.org/1999/xlink">
    <path d="M350.484705,1.10755416e-11 C355.057359,2.35362841 361.612432,5.97601912 364.171047,10.2025292 C365.427629,11.9212309 367.068879,15.3842864 365.991809,17.6929902 C364.760871,20.5916959 364.171047,25.2091034 361.375793,26.3634552 C357.913781,28.0821569 353.297765,28.0821569 349.271574,27.5178071 C346.963566,27.5178071 344.655558,26.927805 342.34755,26.3634552 C350.989758,29.8265108 359.067785,33.7769594 364.760871,41.8574224 C365.427629,43.0117743 367.633059,43.5761241 369.941066,43.5761241 C370.530891,43.5761241 370.530891,44.7304759 370.530891,45.320478 C369.376887,46.4748299 368.222883,47.0391797 368.787063,48.7578813 L370.530891,48.7578813 C373.403078,47.6035295 372.838899,41.8574224 376.86509,43.5761241 C379.762922,45.320478 380.916926,49.3478834 379.173098,52.2465892 C376.86509,54.5552929 374.557082,56.2739945 372.249074,58.0183485 C371.684895,59.1470481 371.684895,60.891402 372.249074,62.0457538 C373.992902,64.3544576 374.557082,66.6631613 375.146906,68.971865 C376.86509,73.0249226 377.454914,77.6423301 379.173098,81.5671264 C381.481106,90.2375915 383.789114,98.8824043 383.224934,107.552869 C383.224934,112.170277 380.916926,116.197682 382.63511,120.81509 C383.789114,125.35554 386.686946,128.818596 388.994953,132.846001 C391.302961,136.309057 393.610969,138.617761 395.226575,142.080816 C398.791165,147.852575 405.151008,153.624335 402.253176,160.447837 C400.432415,164.500894 394.175149,163.910892 390.148957,166.219596 C386.686946,169.118302 389.559133,173.735709 391.302961,176.608763 C394.175149,181.816172 387.84095,185.279228 383.789114,186.99793 C384.943117,188.742284 387.251125,188.152281 387.84095,189.306633 C388.405129,192.205339 391.302961,193.847084 389.559133,196.822747 C387.251125,200.285802 380.327102,201.927547 383.789114,207.109304 C386.097121,211.162362 384.661028,215.67716 383.224934,219.807175 C381.481106,225.014584 376.86509,227.323288 372.838899,228.47764 C369.376887,229.606339 365.427629,229.606339 361.863039,229.04199 C360.811613,228.47764 359.657609,227.887638 358.503605,227.887638 C348.68175,226.733286 338.885539,223.860232 329.063683,223.860232 C326.191495,224.424582 323.293663,225.014584 321.088234,226.168936 C310.702198,233.659397 304.367999,244.535957 300.880343,256.079475 C300.960285,256.274564 301.041598,256.468674 301.124275,256.661809 L92.0330856,256.661809 C96.4262457,255.2991 100.819406,252.125982 105.212566,249.92874 C101.16073,251.083092 97.6987182,252.827446 94.2367064,255.03354 C93.6725268,255.03354 91.9286986,255.623543 91.9286986,254.546147 C92.5185228,253.391796 94.2367064,252.827446 95.3907104,251.673094 C95.9805346,251.673094 96.5447143,251.673094 96.5447143,252.237444 C114.906199,237.820872 140.294285,241.283927 161.553602,233.767814 C163.29743,232.613462 165.015614,231.45911 166.759442,230.304758 C169.63163,229.150407 171.939637,226.277353 175.401649,224.532999 C180.017665,221.172553 183.479677,217.042538 185.223505,211.347736 C185.223505,210.783386 184.633681,210.193384 184.633681,210.193384 C177.145477,218.299499 168.477626,224.532999 159.348172,229.150407 C147.218309,235.512168 133.960086,234.357816 121.368621,236.076518 C121.830223,234.922166 122.984226,234.922166 124.13823,234.922166 C124.13823,233.203464 125.292234,232.613462 126.446238,231.45911 L128.190066,231.45911 C128.779891,231.45911 128.779891,230.304758 129.34407,230.304758 C130.498074,230.304758 132.216258,229.740409 131.652078,229.740409 C129.90825,227.431705 126.446238,231.45911 123.574051,229.740409 C124.728055,228.586057 124.13823,226.841703 125.292234,226.277353 L127.600242,226.277353 C127.600242,225.123001 128.779891,224.071258 128.779891,224.071258 C137.422098,218.863849 145.500125,214.810791 153.578153,210.193384 C151.834325,210.193384 150.680321,211.937738 148.962137,210.783386 C150.116141,210.783386 148.962137,209.064684 150.116141,209.064684 C156.45034,207.32033 161.553602,203.857275 167.913446,201.548571 C165.605438,201.548571 163.964188,203.267273 161.553602,201.548571 C162.707606,200.984221 163.29743,199.804217 165.015614,199.804217 L165.015614,198.085515 C165.015614,197.495513 165.605438,197.495513 166.169618,197.495513 C165.605438,197.495513 165.015614,196.931164 165.015614,196.931164 C165.605438,195.776812 167.323622,196.366814 168.477626,195.212462 C167.913446,195.212462 166.759442,195.212462 166.759442,194.62246 C168.477626,192.313756 171.375458,191.723754 174.247645,191.159404 C173.683466,190.005052 171.939637,191.159404 171.939637,190.005052 C171.939637,189.440703 172.529462,189.440703 173.093641,189.440703 L171.939637,189.440703 C170.785633,188.850701 171.375458,187.696349 171.375458,187.106347 C174.837469,183.078941 174.837469,177.974141 176.555653,173.356733 C175.991473,173.356733 175.401649,173.356733 175.401649,172.792384 C169.63163,179.051536 160.399598,181.334587 151.834325,183.668943 L148.962137,183.668943 C146.064305,184.823295 142.038113,184.823295 139.140281,183.078941 C136.832274,181.924589 135.67827,180.282845 133.370262,178.564143 C128.779891,175.665437 124.13823,173.356733 118.958035,171.535423 C104.622742,167.020624 89.6206907,164.711921 74.7212178,165.27627 C80.9784836,161.813215 87.9794407,161.53104 94.8265307,159.504511 C104.622742,156.631458 113.854773,153.168402 124.13823,153.732752 C122.420047,153.168402 120.112039,153.732752 118.368211,153.732752 C110.392761,153.168402 102.314734,155.477106 93.6725268,157.195807 C87.9025071,158.350159 82.6966672,160.658863 77.0292257,161.813215 C73.4646358,162.967567 71.7464522,166.430622 67.7971943,165.866272 L67.7971943,164.121918 C73.4646358,157.195807 80.3886593,150.269696 89.6206907,149.705346 C100.006726,147.960992 109.828582,149.705346 120.112039,150.859698 C127.600242,151.424048 134.524266,153.168402 142.038113,154.887104 C144.910301,154.887104 145.500125,159.504511 147.808133,160.094513 C151.270145,161.248865 154.732157,160.094513 158.09159,162.403217 C158.09159,161.248865 157.527411,160.094513 158.09159,158.940161 C160.399598,156.631458 163.29743,159.504511 165.605438,158.350159 C170.221454,155.477106 161.553602,150.269696 159.348172,146.242291 C159.348172,145.652289 159.835418,145.087939 159.835418,145.087939 C164.451434,149.115344 167.913446,153.732752 173.683466,156.631458 C176.555653,157.785809 183.479677,159.504511 182.325673,156.041455 C179.453485,149.705346 173.683466,144.497937 169.06745,138.726178 L169.06745,136.417474 C167.913446,136.417474 167.913446,135.930081 167.323622,135.365731 L167.323622,132.954418 C165.015614,131.902675 165.605438,129.593972 164.451434,127.87527 C162.707606,124.976564 163.964188,120.949159 162.707606,117.486103 C161.553602,113.997395 160.989422,111.124342 160.399598,107.661286 C158.758348,97.8621217 156.45034,89.2942657 155.219403,80.0594508 C154.142332,69.080282 161.553602,60.5380783 166.759442,50.7132613 C170.785633,43.7871502 175.401649,36.861039 182.915497,32.2436316 C184.633681,25.3175204 189.249696,19.5457611 193.763134,13.8766109 C198.664584,7.88682676 207.134917,3.39519928 213.887791,0 L350.484705,1.10768837e-11 Z M62.9078442,256.661809 L41.3533828,256.661809 C46.0330792,247.635996 57.4718573,248.746102 66.0533661,244.746983 C68.9511982,243.592631 72.41321,245.311333 75.2853975,244.746983 C77.0292257,244.746983 78.6704757,244.746983 80.3886593,245.901335 C74.1718064,249.300234 68.4984229,253.242767 62.9078442,256.661809 Z M61.6609676,191.26625 C63.9689755,190.676248 66.8668075,190.676248 68.5849912,188.957547 C64.5587997,188.367545 59.942784,190.111898 55.890948,187.803195 C58.7887801,180.287081 63.4047958,174.053581 70.3288193,170.487917 C70.892999,170.487917 72.0470029,170.487917 72.0470029,171.154876 C72.0470029,174.053581 70.3288193,176.259676 67.4309872,176.824026 C72.0470029,177.978378 76.6630186,177.978378 81.1764562,180.287081 C80.7148546,181.441433 79.4582726,180.877084 78.9710265,180.877084 C81.7662804,182.595785 85.2282922,181.441433 88.2030579,183.750137 C86.3822961,185.494491 84.7410461,183.750137 83.0228625,183.750137 C100.794523,188.957547 119.745832,192.984952 134.747883,204.528471 C122.05384,210.787623 108.87255,213.686329 95.0245033,216.559382 C93.3063197,216.559382 92.1523158,216.559382 90.4084876,215.96938 C90.4084876,216.559382 90.4084876,217.816343 89.8443079,217.816343 C87.6388782,217.816343 85.7924719,217.816343 84.0742883,218.868086 C81.7662804,220.022438 78.4068468,220.61244 76.6630186,218.868086 C76.0988389,218.303736 78.4068468,218.868086 78.9710265,217.816343 L74.3550108,217.816343 C73.7651866,217.816343 73.7651866,217.226341 73.7651866,216.559382 C70.892999,217.226341 67.4309872,218.303736 64.5587997,218.868086 C60.5069637,220.022438 57.0449519,222.921144 52.4289362,224.075495 C46.0947369,226.384199 40.888897,231.565956 34.0674515,233.87466 C33.4776273,233.87466 33.4776273,233.31031 33.4776273,232.720308 C34.0674515,231.001607 36.3754594,230.411604 37.5294633,228.692903 C37.5294633,228.102901 37.5294633,227.538551 36.9396391,227.538551 C41.5556548,221.17679 47.8129205,217.816343 53.5829401,212.608934 L53.5829401,210.787623 C55.3267683,208.581528 58.1989558,207.427176 59.3529598,204.528471 C59.942784,202.809769 62.2251473,200.501065 65.1229794,199.346713 C64.5587997,198.756711 63.4047958,198.756711 63.4047958,197.602359 C61.0967879,197.602359 58.7887801,198.756711 56.4807722,197.03801 C59.3529598,194.139304 63.4047958,194.729306 66.8668075,193.574954 C63.9689755,193.574954 60.5069637,196.448008 58.7887801,194.139304 C58.1989558,192.984952 59.8402059,191.753643 61.6609676,191.26625 Z M38.0051959,164.627016 C47.801407,154.237849 58.0848642,145.105644 70.2147277,139.333884 C74.8307434,137.58953 80.600763,138.076923 85.2167787,139.898234 C83.4985951,142.206938 80.600763,141.539979 78.2927552,143.258681 C77.7285755,143.258681 77.1387513,143.258681 76.548927,142.79694 C77.1387513,142.206938 77.1387513,141.539979 77.1387513,141.052586 C71.3687316,147.414347 63.2907042,150.184792 58.7772666,157.700905 C55.2126767,163.472664 53.007247,170.963125 45.4933992,172.707479 C43.1853913,173.271829 46.0832234,170.963125 44.9292195,171.553127 C27.0293364,182.506644 14.4378713,195.691907 0.589824228,211.288484 C0.589824228,211.288484 0,210.698482 0,210.134132 C7.51384778,200.309315 13.2838674,191.177109 18.4640628,180.787942 C25.9779106,176.734885 32.1325982,170.886169 38.0051959,164.627016 Z M362.769198,104.893919 C365.077206,105.458269 368.539218,105.458269 368.539218,106.61262 C367.359569,111.230028 360.46119,112.38438 356.999179,116.92483 L355.25535,116.92483 C353.537167,118.156139 354.101347,121.054845 352.383163,121.054845 C350.741913,120.464843 348.921151,121.054845 347.177323,121.644847 C349.485331,123.927898 352.383163,125.672252 355.81953,125.005293 C356.409354,125.005293 357.563358,126.159645 357.563358,127.313997 C357.563358,127.313997 358.153183,127.313997 358.717362,126.826604 C359.307186,126.826604 359.871366,126.826604 359.871366,127.313997 L359.871366,129.622701 C358.153183,131.931405 355.25535,130.85401 352.947343,131.444012 C357.563358,132.495754 362.179374,132.495754 366.23121,131.444012 C369.693222,130.187051 366.23121,124.415291 368.539218,121.644847 C367.359569,121.644847 368.539218,119.900493 367.359569,119.900493 C368.539218,118.746141 369.693222,116.92483 370.847226,116.437437 C372.00123,116.437437 373.719413,115.873088 374.309237,114.693084 C374.309237,113.538732 372.00123,112.974382 372.565409,111.82003 C376.027421,109.511326 378.925253,106.048271 377.668671,102.585215 C377.181425,100.840861 372.565409,100.840861 369.693222,99.6865093 C366.79539,98.5321575 363.333378,99.6865093 359.871366,100.276511 C356.999179,100.276511 354.101347,101.995213 351.229159,102.585215 C347.177323,103.739567 343.715311,106.048271 340.355878,108.356974 C344.305135,106.61262 348.331327,106.048271 352.947343,104.893919 C356.409354,104.893919 359.38412,104.021742 362.769198,104.893919 Z" id="path-1"></path>
    <g id="Style-Guide" stroke="none" stroke-width="1" fill="none" fill-rule="evenodd">
        <g id="Style_Guide" transform="translate(-71.000000, -47.000000)">
            <g id="header" transform="translate(48.000000, 30.000000)">
                <g id="Marianne" transform="translate(23.000000, 17.000000)">
                    <mask id="mask-2" fill="white">
                        <use xlink:href="#path-1"></use>
                    </mask>
                    <use id="Combined-Shape" fill="#6F5FFC" xlink:href="#path-1"></use>
                </g>
            </g>
        </g>
    </g>
</svg>